<mxfile host="app.diagrams.net" modified="2023-12-03T18:31:25.541Z" agent="Mozilla/5.0 (Windows NT 10.0; Win64; x64) AppleWebKit/537.36 (KHTML, like Gecko) Chrome/119.0.0.0 Safari/537.36" etag="cpX3jI4pO13n-UkVAx5a" version="22.1.5" type="device">
  <diagram name="Page-1" id="WbOLYbwLIdfWqwnnSZlo">
    <mxGraphModel dx="934" dy="508" grid="1" gridSize="10" guides="1" tooltips="1" connect="1" arrows="1" fold="1" page="1" pageScale="1" pageWidth="850" pageHeight="1100" math="0" shadow="0">
      <root>
        <mxCell id="0" />
        <mxCell id="1" parent="0" />
        <mxCell id="SRwSgZ_3j_UgQMrLYZ1H-1" value="" style="ellipse;whiteSpace=wrap;html=1;aspect=fixed;fillColor=#6a00ff;strokeColor=#3700CC;fontColor=#ffffff;" vertex="1" parent="1">
          <mxGeometry x="230" y="200" width="10" height="10" as="geometry" />
        </mxCell>
        <mxCell id="SRwSgZ_3j_UgQMrLYZ1H-2" value="" style="ellipse;whiteSpace=wrap;html=1;aspect=fixed;fillColor=#6a00ff;strokeColor=#3700CC;fontColor=#ffffff;" vertex="1" parent="1">
          <mxGeometry x="350" y="150" width="10" height="10" as="geometry" />
        </mxCell>
        <mxCell id="SRwSgZ_3j_UgQMrLYZ1H-3" value="" style="ellipse;whiteSpace=wrap;html=1;aspect=fixed;fillColor=#6a00ff;strokeColor=#3700CC;fontColor=#ffffff;" vertex="1" parent="1">
          <mxGeometry x="350" y="381" width="10" height="10" as="geometry" />
        </mxCell>
        <mxCell id="SRwSgZ_3j_UgQMrLYZ1H-6" value="Team-Blockchain1&lt;br&gt;146.229.163.144" style="text;html=1;strokeColor=none;fillColor=none;align=center;verticalAlign=middle;whiteSpace=wrap;rounded=0;" vertex="1" parent="1">
          <mxGeometry x="110" y="190" width="110" height="30" as="geometry" />
        </mxCell>
        <mxCell id="SRwSgZ_3j_UgQMrLYZ1H-7" value="&lt;span style=&quot;color: rgb(0, 0, 0); font-family: Helvetica; font-size: 12px; font-style: normal; font-variant-ligatures: normal; font-variant-caps: normal; font-weight: 400; letter-spacing: normal; orphans: 2; text-align: center; text-indent: 0px; text-transform: none; widows: 2; word-spacing: 0px; -webkit-text-stroke-width: 0px; background-color: rgb(251, 251, 251); text-decoration-thickness: initial; text-decoration-style: initial; text-decoration-color: initial; float: none; display: inline !important;&quot;&gt;Team-Blockchain2&lt;br&gt;146.229.163.145&lt;br&gt;&lt;/span&gt;" style="text;whiteSpace=wrap;html=1;" vertex="1" parent="1">
          <mxGeometry x="305" y="110" width="130" height="40" as="geometry" />
        </mxCell>
        <mxCell id="SRwSgZ_3j_UgQMrLYZ1H-10" value="Miner1-VirtualBox&lt;br&gt;146.229.163.147" style="text;html=1;strokeColor=none;fillColor=none;align=center;verticalAlign=middle;whiteSpace=wrap;rounded=0;" vertex="1" parent="1">
          <mxGeometry x="305" y="400" width="100" height="30" as="geometry" />
        </mxCell>
        <mxCell id="SRwSgZ_3j_UgQMrLYZ1H-11" value="" style="rounded=0;whiteSpace=wrap;html=1;" vertex="1" parent="1">
          <mxGeometry x="477.5" y="375" width="165" height="80" as="geometry" />
        </mxCell>
        <mxCell id="SRwSgZ_3j_UgQMrLYZ1H-12" value="" style="ellipse;whiteSpace=wrap;html=1;aspect=fixed;fillColor=#f0a30a;strokeColor=#BD7000;fontColor=#000000;" vertex="1" parent="1">
          <mxGeometry x="497.5" y="425" width="10" height="10" as="geometry" />
        </mxCell>
        <mxCell id="SRwSgZ_3j_UgQMrLYZ1H-13" value="" style="ellipse;whiteSpace=wrap;html=1;aspect=fixed;fillColor=#6a00ff;strokeColor=#3700CC;fontColor=#ffffff;" vertex="1" parent="1">
          <mxGeometry x="497.5" y="395" width="10" height="10" as="geometry" />
        </mxCell>
        <mxCell id="SRwSgZ_3j_UgQMrLYZ1H-14" value="Full Node" style="text;html=1;strokeColor=none;fillColor=none;align=center;verticalAlign=middle;whiteSpace=wrap;rounded=0;" vertex="1" parent="1">
          <mxGeometry x="527.5" y="385" width="60" height="30" as="geometry" />
        </mxCell>
        <mxCell id="SRwSgZ_3j_UgQMrLYZ1H-15" value="Lightweight Node" style="text;html=1;strokeColor=none;fillColor=none;align=center;verticalAlign=middle;whiteSpace=wrap;rounded=0;" vertex="1" parent="1">
          <mxGeometry x="517.5" y="415" width="120" height="30" as="geometry" />
        </mxCell>
        <mxCell id="SRwSgZ_3j_UgQMrLYZ1H-20" value="" style="ellipse;whiteSpace=wrap;html=1;aspect=fixed;fillColor=#f0a30a;strokeColor=#BD7000;fontColor=#000000;" vertex="1" parent="1">
          <mxGeometry x="460" y="165" width="10" height="10" as="geometry" />
        </mxCell>
        <mxCell id="SRwSgZ_3j_UgQMrLYZ1H-21" value="" style="ellipse;whiteSpace=wrap;html=1;aspect=fixed;fillColor=#6a00ff;strokeColor=#3700CC;fontColor=#ffffff;" vertex="1" parent="1">
          <mxGeometry x="230" y="320" width="10" height="10" as="geometry" />
        </mxCell>
        <mxCell id="SRwSgZ_3j_UgQMrLYZ1H-22" value="Team-Blockchain1 and Team-Blockchain2 are All-In-Ones running Ubuntu Linux." style="rounded=0;whiteSpace=wrap;html=1;" vertex="1" parent="1">
          <mxGeometry x="470" y="270" width="180" height="80" as="geometry" />
        </mxCell>
        <mxCell id="SRwSgZ_3j_UgQMrLYZ1H-24" value="Miner2-VirtualBox&lt;br&gt;146.229.163.149" style="text;html=1;strokeColor=none;fillColor=none;align=center;verticalAlign=middle;whiteSpace=wrap;rounded=0;" vertex="1" parent="1">
          <mxGeometry x="120" y="310" width="100" height="30" as="geometry" />
        </mxCell>
        <mxCell id="SRwSgZ_3j_UgQMrLYZ1H-29" value="Pixel_6a_API_33&lt;br&gt;Hosted locally: port 8554" style="text;html=1;strokeColor=none;fillColor=none;align=center;verticalAlign=middle;whiteSpace=wrap;rounded=0;" vertex="1" parent="1">
          <mxGeometry x="470" y="160" width="100" height="30" as="geometry" />
        </mxCell>
        <mxCell id="SRwSgZ_3j_UgQMrLYZ1H-30" value="" style="fontColor=#0066CC;verticalAlign=top;verticalLabelPosition=bottom;labelPosition=center;align=center;html=1;outlineConnect=0;fillColor=#CCCCCC;strokeColor=#6881B3;gradientColor=none;gradientDirection=north;strokeWidth=2;shape=mxgraph.networks.mobile;" vertex="1" parent="1">
          <mxGeometry x="495" y="75" width="40" height="75" as="geometry" />
        </mxCell>
        <mxCell id="SRwSgZ_3j_UgQMrLYZ1H-31" value="" style="fontColor=#0066CC;verticalAlign=top;verticalLabelPosition=bottom;labelPosition=center;align=center;html=1;outlineConnect=0;fillColor=#CCCCCC;strokeColor=#6881B3;gradientColor=none;gradientDirection=north;strokeWidth=2;shape=mxgraph.networks.pc;" vertex="1" parent="1">
          <mxGeometry x="115" y="110" width="100" height="70" as="geometry" />
        </mxCell>
        <mxCell id="SRwSgZ_3j_UgQMrLYZ1H-32" value="" style="fontColor=#0066CC;verticalAlign=top;verticalLabelPosition=bottom;labelPosition=center;align=center;html=1;outlineConnect=0;fillColor=#CCCCCC;strokeColor=#6881B3;gradientColor=none;gradientDirection=north;strokeWidth=2;shape=mxgraph.networks.pc;" vertex="1" parent="1">
          <mxGeometry x="300" y="40" width="100" height="70" as="geometry" />
        </mxCell>
        <mxCell id="SRwSgZ_3j_UgQMrLYZ1H-34" value="" style="fontColor=#0066CC;verticalAlign=top;verticalLabelPosition=bottom;labelPosition=center;align=center;html=1;outlineConnect=0;fillColor=#CCCCCC;strokeColor=#6881B3;gradientColor=none;gradientDirection=north;strokeWidth=2;shape=mxgraph.networks.terminal;" vertex="1" parent="1">
          <mxGeometry x="130" y="345" width="80" height="65" as="geometry" />
        </mxCell>
        <mxCell id="SRwSgZ_3j_UgQMrLYZ1H-35" value="" style="fontColor=#0066CC;verticalAlign=top;verticalLabelPosition=bottom;labelPosition=center;align=center;html=1;outlineConnect=0;fillColor=#CCCCCC;strokeColor=#6881B3;gradientColor=none;gradientDirection=north;strokeWidth=2;shape=mxgraph.networks.terminal;" vertex="1" parent="1">
          <mxGeometry x="315" y="430" width="80" height="65" as="geometry" />
        </mxCell>
        <mxCell id="SRwSgZ_3j_UgQMrLYZ1H-43" value="" style="endArrow=none;html=1;rounded=0;exitX=1;exitY=0;exitDx=0;exitDy=0;entryX=0;entryY=0;entryDx=0;entryDy=0;" edge="1" parent="1" source="SRwSgZ_3j_UgQMrLYZ1H-1" target="SRwSgZ_3j_UgQMrLYZ1H-2">
          <mxGeometry width="50" height="50" relative="1" as="geometry">
            <mxPoint x="430" y="310" as="sourcePoint" />
            <mxPoint x="480" y="260" as="targetPoint" />
          </mxGeometry>
        </mxCell>
        <mxCell id="SRwSgZ_3j_UgQMrLYZ1H-44" value="" style="endArrow=none;html=1;rounded=0;exitX=0.5;exitY=1;exitDx=0;exitDy=0;entryX=0.5;entryY=0;entryDx=0;entryDy=0;" edge="1" parent="1" source="SRwSgZ_3j_UgQMrLYZ1H-1" target="SRwSgZ_3j_UgQMrLYZ1H-21">
          <mxGeometry width="50" height="50" relative="1" as="geometry">
            <mxPoint x="340" y="270" as="sourcePoint" />
            <mxPoint x="390" y="220" as="targetPoint" />
          </mxGeometry>
        </mxCell>
        <mxCell id="SRwSgZ_3j_UgQMrLYZ1H-45" value="" style="endArrow=none;html=1;rounded=0;exitX=1;exitY=1;exitDx=0;exitDy=0;entryX=0;entryY=0.5;entryDx=0;entryDy=0;" edge="1" parent="1" source="SRwSgZ_3j_UgQMrLYZ1H-21" target="SRwSgZ_3j_UgQMrLYZ1H-3">
          <mxGeometry width="50" height="50" relative="1" as="geometry">
            <mxPoint x="340" y="270" as="sourcePoint" />
            <mxPoint x="390" y="220" as="targetPoint" />
          </mxGeometry>
        </mxCell>
        <mxCell id="SRwSgZ_3j_UgQMrLYZ1H-46" value="" style="endArrow=none;html=1;rounded=0;exitX=0.5;exitY=0;exitDx=0;exitDy=0;entryX=0.5;entryY=1;entryDx=0;entryDy=0;" edge="1" parent="1" source="SRwSgZ_3j_UgQMrLYZ1H-3" target="SRwSgZ_3j_UgQMrLYZ1H-2">
          <mxGeometry width="50" height="50" relative="1" as="geometry">
            <mxPoint x="480" y="260" as="sourcePoint" />
            <mxPoint x="530" y="210" as="targetPoint" />
          </mxGeometry>
        </mxCell>
        <mxCell id="SRwSgZ_3j_UgQMrLYZ1H-47" value="" style="endArrow=none;html=1;rounded=0;exitX=0;exitY=1;exitDx=0;exitDy=0;entryX=1;entryY=0;entryDx=0;entryDy=0;" edge="1" parent="1" source="SRwSgZ_3j_UgQMrLYZ1H-2" target="SRwSgZ_3j_UgQMrLYZ1H-21">
          <mxGeometry width="50" height="50" relative="1" as="geometry">
            <mxPoint x="370" y="280" as="sourcePoint" />
            <mxPoint x="420" y="230" as="targetPoint" />
          </mxGeometry>
        </mxCell>
        <mxCell id="SRwSgZ_3j_UgQMrLYZ1H-48" value="" style="endArrow=none;html=1;rounded=0;entryX=1;entryY=1;entryDx=0;entryDy=0;exitX=0;exitY=0;exitDx=0;exitDy=0;" edge="1" parent="1" source="SRwSgZ_3j_UgQMrLYZ1H-3" target="SRwSgZ_3j_UgQMrLYZ1H-1">
          <mxGeometry width="50" height="50" relative="1" as="geometry">
            <mxPoint x="370" y="280" as="sourcePoint" />
            <mxPoint x="420" y="230" as="targetPoint" />
          </mxGeometry>
        </mxCell>
        <mxCell id="SRwSgZ_3j_UgQMrLYZ1H-49" value="" style="endArrow=none;dashed=1;html=1;rounded=0;exitX=1;exitY=0.5;exitDx=0;exitDy=0;entryX=0;entryY=0.5;entryDx=0;entryDy=0;" edge="1" parent="1" target="SRwSgZ_3j_UgQMrLYZ1H-20">
          <mxGeometry width="50" height="50" relative="1" as="geometry">
            <mxPoint x="349.9999999999917" y="150" as="sourcePoint" />
            <mxPoint x="400" y="235" as="targetPoint" />
          </mxGeometry>
        </mxCell>
      </root>
    </mxGraphModel>
  </diagram>
</mxfile>
